<?xml version="1.0" standalone="no"?>
<!DOCTYPE svg PUBLIC "-//W3C//DTD SVG 20010904//EN"
 "http://www.w3.org/TR/2001/REC-SVG-20010904/DTD/svg10.dtd">
<svg version="1.0" xmlns="http://www.w3.org/2000/svg"
 width="300.000000pt" height="300.000000pt" viewBox="0 0 300.000000 300.000000"
 preserveAspectRatio="xMidYMid meet">
<metadata>
Created by potrace 1.10, written by Peter Selinger 2001-2011
</metadata>
<g transform="translate(0.000000,300.000000) scale(0.100000,-0.100000)"
fill="#edeaeaff" stroke="none">
<path d="M321 1786 c-20 -21 -21 -34 -21 -224 0 -189 1 -203 20 -222 20 -20
65 -26 86 -12 6 4 16 16 22 27 12 24 19 126 9 142 -9 14 28 46 90 77 57 28 73
49 73 95 0 67 -35 91 -135 91 l-66 0 1 -202 2 -203 -34 -3 -33 -3 0 210 0 209
75 7 c100 9 197 -7 227 -38 33 -33 39 -84 14 -124 -16 -26 -34 -36 -91 -54
-66 -20 -121 -51 -110 -62 3 -3 30 3 60 13 30 10 72 21 93 25 l37 7 0 -91 c0
-101 15 -131 65 -131 44 0 59 31 65 132 6 103 17 120 67 102 25 -8 29 -15 33
-64 6 -69 35 -119 86 -147 45 -26 90 -29 139 -9 20 9 37 11 40 5 3 -5 5 -37 4
-70 -2 -57 0 -64 25 -86 55 -47 106 -4 106 88 l0 59 54 0 c43 0 60 5 84 25 91
77 79 231 -22 279 -29 13 -46 15 -85 8 -27 -5 -56 -5 -63 -1 -21 14 -60 10
-79 -7 -17 -15 -21 -15 -53 0 -43 20 -69 20 -128 -1 -45 -16 -49 -16 -82 2
-31 17 -39 17 -90 5 -54 -13 -57 -12 -81 10 -14 13 -25 31 -25 39 0 27 -38 79
-67 94 -18 9 -75 16 -160 19 -126 5 -133 5 -152 -16z m217 -72 c22 -15 30 -57
14 -80 -9 -14 -89 -64 -102 -64 -11 0 -14 142 -3 153 12 13 68 7 91 -9z m192
-114 c0 -24 -2 -24 51 0 54 24 81 25 108 3 15 -13 18 -22 12 -33 -9 -12 -12
-12 -29 3 -23 21 -74 22 -113 1 l-31 -15 4 -105 3 -104 -30 0 -30 0 0 135 0
135 28 0 c20 0 27 -5 27 -20z m354 6 c92 -38 85 -156 -9 -156 -40 0 -96 33
-119 70 -24 40 -21 -4 5 -57 42 -86 143 -100 183 -25 12 21 15 23 16 9 0 -29
-63 -87 -96 -88 -57 -2 -80 3 -111 27 -73 55 -60 175 23 219 36 19 65 19 108
1z m146 -12 l0 -26 31 26 c86 73 201 -25 169 -143 -12 -44 -69 -101 -101 -101
-26 0 -76 26 -82 42 -10 31 7 37 24 9 42 -70 109 -16 109 87 0 108 -57 147
-121 82 l-30 -29 3 -171 3 -170 -30 0 -30 0 0 210 0 210 28 0 c22 0 27 -4 27
-26z m98 -37 c21 -25 19 -104 -3 -133 -15 -19 -15 -19 -35 5 -24 28 -26 87 -4
119 17 25 27 27 42 9z"/>
<path d="M981 1588 c-37 -19 -36 -35 2 -73 37 -37 82 -46 105 -23 46 46 -45
128 -107 96z m53 -34 c19 -7 21 -34 3 -34 -14 0 -37 20 -37 32 0 10 13 10 34
2z"/>
<path d="M1442 1794 c-12 -8 -22 -24 -22 -34 0 -11 24 -79 54 -152 113 -276
120 -288 184 -288 21 0 38 9 56 31 l26 31 29 -31 c50 -53 124 -35 145 36 4 11
25 49 47 84 35 54 42 60 51 45 6 -10 8 -47 5 -81 -5 -55 -3 -68 15 -90 18 -23
26 -26 57 -21 20 4 47 6 61 5 83 -6 130 -1 168 19 l42 22 46 -25 c76 -41 137
-31 197 32 23 24 28 41 33 96 6 76 -8 113 -56 147 -46 33 -97 36 -157 10 -50
-21 -52 -21 -79 -3 -23 14 -45 18 -116 16 -58 -1 -88 2 -88 9 0 10 -36 55
-104 131 -40 44 -88 38 -168 -22 -81 -61 -87 -75 -51 -113 32 -33 63 -36 109
-7 31 19 34 19 34 4 0 -27 -82 -174 -94 -169 -6 2 -33 57 -59 122 -63 154 -86
194 -120 207 -37 13 -81 -11 -85 -46 -2 -14 17 -72 41 -129 54 -128 60 -147
49 -154 -10 -6 -44 67 -98 203 -47 118 -95 155 -152 115z m96 -77 c11 -29 48
-119 82 -201 l63 -149 17 44 c9 24 22 53 29 64 11 18 6 37 -44 150 -31 72 -58
135 -61 140 -3 7 10 9 35 7 37 -4 40 -7 59 -55 11 -29 48 -119 82 -201 l63
-148 12 34 c6 19 32 68 56 109 62 103 81 145 77 177 -5 41 -39 40 -86 -2 -45
-41 -62 -44 -87 -16 -17 19 -17 20 1 27 11 4 41 24 67 45 27 21 55 38 64 38
18 0 56 -19 65 -34 23 -35 -2 -115 -70 -220 -24 -37 -55 -92 -69 -122 -23 -50
-27 -54 -59 -54 -27 0 -36 5 -43 23 -5 12 -16 40 -26 62 l-17 40 -30 -63 c-29
-61 -31 -63 -65 -60 l-34 3 -74 180 c-41 99 -81 192 -90 207 -20 35 -21 34 24
30 37 -4 40 -7 59 -55z m562 -52 c15 -18 5 -35 -20 -35 -10 0 -22 5 -25 10 -7
11 12 40 25 40 4 0 13 -7 20 -15z m5 -180 l0 -135 -27 0 -28 0 0 135 0 135 28
0 27 0 0 -135z m197 125 c41 -12 50 -20 39 -38 -5 -9 -17 -7 -46 8 -46 23
-103 26 -131 6 -28 -21 -9 -35 66 -47 95 -15 120 -35 120 -96 0 -41 -25 -71
-69 -84 -94 -28 -197 39 -154 100 8 12 23 21 33 21 16 0 19 -5 13 -30 -11 -56
47 -91 113 -70 24 8 36 20 41 37 9 37 -22 59 -93 68 -76 9 -101 20 -109 44
-22 70 68 111 177 81z m236 -4 c36 -19 59 -45 67 -78 5 -21 1 -33 -19 -52 -44
-45 -116 -30 -170 34 -29 35 -35 21 -12 -33 32 -79 122 -112 170 -64 13 13 25
30 28 38 3 8 9 11 13 7 11 -11 -25 -64 -58 -83 -60 -36 -152 -13 -182 45 -18
35 -19 96 -2 130 17 33 74 70 109 70 16 0 41 -6 56 -14z m-261 -183 c6 -18
-24 -22 -47 -6 -16 12 -19 18 -9 23 14 9 51 -2 56 -17z"/>
<path d="M2431 1587 c-37 -18 -36 -34 3 -73 28 -28 42 -35 67 -32 18 2 36 10
42 19 16 25 0 67 -33 84 -35 18 -48 18 -79 2z m69 -42 c10 -12 9 -16 -4 -21
-16 -6 -46 11 -46 27 0 15 37 10 50 -6z"/>
</g>
</svg>
